<svg class="rich-terminal" viewBox="0 0 1848 342.79999999999995" xmlns="http://www.w3.org/2000/svg">
    <!-- Generated with Rich https://www.textualize.io -->
    <style>

    @font-face {
        font-family: "Fira Code";
        src: local("FiraCode-Regular"),
                url("https://cdnjs.cloudflare.com/ajax/libs/firacode/6.2.0/woff2/FiraCode-Regular.woff2") format("woff2"),
                url("https://cdnjs.cloudflare.com/ajax/libs/firacode/6.2.0/woff/FiraCode-Regular.woff") format("woff");
        font-style: normal;
        font-weight: 400;
    }
    @font-face {
        font-family: "Fira Code";
        src: local("FiraCode-Bold"),
                url("https://cdnjs.cloudflare.com/ajax/libs/firacode/6.2.0/woff2/FiraCode-Bold.woff2") format("woff2"),
                url("https://cdnjs.cloudflare.com/ajax/libs/firacode/6.2.0/woff/FiraCode-Bold.woff") format("woff");
        font-style: bold;
        font-weight: 700;
    }

    .terminal-1311584029-matrix {
        font-family: Fira Code, monospace;
        font-size: 20px;
        line-height: 24.4px;
        font-variant-east-asian: full-width;
    }

    .terminal-1311584029-title {
        font-size: 18px;
        font-weight: bold;
        font-family: arial;
    }

    .terminal-1311584029-r1 { fill: #c5c8c6 }
.terminal-1311584029-r2 { fill: #e3e3e3 }
.terminal-1311584029-r3 { fill: #a5a5a5 }
.terminal-1311584029-r4 { fill: #dde6ed;font-weight: bold }
.terminal-1311584029-r5 { fill: #dde6ed }
.terminal-1311584029-r6 { fill: #e1e2e3 }
.terminal-1311584029-r7 { fill: #58d1eb;font-weight: bold }
.terminal-1311584029-r8 { fill: #98e024 }
.terminal-1311584029-r9 { fill: #fd971f }
.terminal-1311584029-r10 { fill: #211505 }
.terminal-1311584029-r11 { fill: #211505;font-weight: bold }
.terminal-1311584029-r12 { fill: #794f14 }
.terminal-1311584029-r13 { fill: #e1e1e1 }
.terminal-1311584029-r14 { fill: #f4005f;font-weight: bold }
.terminal-1311584029-r15 { fill: #f4005f }
.terminal-1311584029-r16 { fill: #939393 }
.terminal-1311584029-r17 { fill: #fea62b;font-weight: bold }
.terminal-1311584029-r18 { fill: #a7a9ab }
.terminal-1311584029-r19 { fill: #e2e3e3 }
    </style>

    <defs>
    <clipPath id="terminal-1311584029-clip-terminal">
      <rect x="0" y="0" width="1829.0" height="291.79999999999995" />
    </clipPath>
    <clipPath id="terminal-1311584029-line-0">
    <rect x="0" y="1.5" width="1830" height="24.65"/>
            </clipPath>
<clipPath id="terminal-1311584029-line-1">
    <rect x="0" y="25.9" width="1830" height="24.65"/>
            </clipPath>
<clipPath id="terminal-1311584029-line-2">
    <rect x="0" y="50.3" width="1830" height="24.65"/>
            </clipPath>
<clipPath id="terminal-1311584029-line-3">
    <rect x="0" y="74.7" width="1830" height="24.65"/>
            </clipPath>
<clipPath id="terminal-1311584029-line-4">
    <rect x="0" y="99.1" width="1830" height="24.65"/>
            </clipPath>
<clipPath id="terminal-1311584029-line-5">
    <rect x="0" y="123.5" width="1830" height="24.65"/>
            </clipPath>
<clipPath id="terminal-1311584029-line-6">
    <rect x="0" y="147.9" width="1830" height="24.65"/>
            </clipPath>
<clipPath id="terminal-1311584029-line-7">
    <rect x="0" y="172.3" width="1830" height="24.65"/>
            </clipPath>
<clipPath id="terminal-1311584029-line-8">
    <rect x="0" y="196.7" width="1830" height="24.65"/>
            </clipPath>
<clipPath id="terminal-1311584029-line-9">
    <rect x="0" y="221.1" width="1830" height="24.65"/>
            </clipPath>
<clipPath id="terminal-1311584029-line-10">
    <rect x="0" y="245.5" width="1830" height="24.65"/>
            </clipPath>
    </defs>

    <rect fill="#292929" stroke="rgba(255,255,255,0.35)" stroke-width="1" x="1" y="1" width="1846" height="340.8" rx="8"/><text class="terminal-1311584029-title" fill="#c5c8c6" text-anchor="middle" x="923" y="27">ctr&#160;—&#160;Claude&#160;accounts</text>
            <g transform="translate(26,22)">
            <circle cx="0" cy="0" r="7" fill="#ff5f57"/>
            <circle cx="22" cy="0" r="7" fill="#febc2e"/>
            <circle cx="44" cy="0" r="7" fill="#28c840"/>
            </g>
        
    <g transform="translate(9, 41)" clip-path="url(#terminal-1311584029-clip-terminal)">
    <rect fill="#282828" x="0" y="1.5" width="12.2" height="24.65" shape-rendering="crispEdges"/><rect fill="#282828" x="12.2" y="1.5" width="12.2" height="24.65" shape-rendering="crispEdges"/><rect fill="#282828" x="24.4" y="1.5" width="744.2" height="24.65" shape-rendering="crispEdges"/><rect fill="#282828" x="768.6" y="1.5" width="256.2" height="24.65" shape-rendering="crispEdges"/><rect fill="#282828" x="1024.8" y="1.5" width="695.4" height="24.65" shape-rendering="crispEdges"/><rect fill="#282828" x="1720.2" y="1.5" width="0" height="24.65" shape-rendering="crispEdges"/><rect fill="#282828" x="1720.2" y="1.5" width="109.8" height="24.65" shape-rendering="crispEdges"/><rect fill="#1e1e1e" x="0" y="25.9" width="12.2" height="24.65" shape-rendering="crispEdges"/><rect fill="#1e1e1e" x="12.2" y="25.9" width="1171.2" height="24.65" shape-rendering="crispEdges"/><rect fill="#1e1e1e" x="1183.4" y="25.9" width="646.6" height="24.65" shape-rendering="crispEdges"/><rect fill="#004578" x="0" y="50.3" width="36.6" height="24.65" shape-rendering="crispEdges"/><rect fill="#004578" x="36.6" y="50.3" width="292.8" height="24.65" shape-rendering="crispEdges"/><rect fill="#004578" x="329.4" y="50.3" width="183" height="24.65" shape-rendering="crispEdges"/><rect fill="#004578" x="512.4" y="50.3" width="231.8" height="24.65" shape-rendering="crispEdges"/><rect fill="#004578" x="744.2" y="50.3" width="122" height="24.65" shape-rendering="crispEdges"/><rect fill="#004578" x="866.2" y="50.3" width="231.8" height="24.65" shape-rendering="crispEdges"/><rect fill="#004578" x="1098" y="50.3" width="146.4" height="24.65" shape-rendering="crispEdges"/><rect fill="#004578" x="1244.4" y="50.3" width="329.4" height="24.65" shape-rendering="crispEdges"/><rect fill="#004578" x="1573.8" y="50.3" width="146.4" height="24.65" shape-rendering="crispEdges"/><rect fill="#073b61" x="1720.2" y="50.3" width="109.8" height="24.65" shape-rendering="crispEdges"/><rect fill="#19232b" x="0" y="74.7" width="12.2" height="24.65" shape-rendering="crispEdges"/><rect fill="#19232b" x="12.2" y="74.7" width="12.2" height="24.65" shape-rendering="crispEdges"/><rect fill="#19232b" x="24.4" y="74.7" width="12.2" height="24.65" shape-rendering="crispEdges"/><rect fill="#19232b" x="36.6" y="74.7" width="12.2" height="24.65" shape-rendering="crispEdges"/><rect fill="#19232b" x="48.8" y="74.7" width="256.2" height="24.65" shape-rendering="crispEdges"/><rect fill="#19232b" x="305" y="74.7" width="24.4" height="24.65" shape-rendering="crispEdges"/><rect fill="#19232b" x="329.4" y="74.7" width="12.2" height="24.65" shape-rendering="crispEdges"/><rect fill="#19232b" x="341.6" y="74.7" width="85.4" height="24.65" shape-rendering="crispEdges"/><rect fill="#19232b" x="427" y="74.7" width="85.4" height="24.65" shape-rendering="crispEdges"/><rect fill="#19232b" x="512.4" y="74.7" width="12.2" height="24.65" shape-rendering="crispEdges"/><rect fill="#19232b" x="524.6" y="74.7" width="207.4" height="24.65" shape-rendering="crispEdges"/><rect fill="#19232b" x="732" y="74.7" width="12.2" height="24.65" shape-rendering="crispEdges"/><rect fill="#19232b" x="744.2" y="74.7" width="122" height="24.65" shape-rendering="crispEdges"/><rect fill="#19232b" x="866.2" y="74.7" width="12.2" height="24.65" shape-rendering="crispEdges"/><rect fill="#19232b" x="878.4" y="74.7" width="207.4" height="24.65" shape-rendering="crispEdges"/><rect fill="#19232b" x="1085.8" y="74.7" width="12.2" height="24.65" shape-rendering="crispEdges"/><rect fill="#19232b" x="1098" y="74.7" width="146.4" height="24.65" shape-rendering="crispEdges"/><rect fill="#19232b" x="1244.4" y="74.7" width="12.2" height="24.65" shape-rendering="crispEdges"/><rect fill="#19232b" x="1256.6" y="74.7" width="85.4" height="24.65" shape-rendering="crispEdges"/><rect fill="#19232b" x="1342" y="74.7" width="231.8" height="24.65" shape-rendering="crispEdges"/><rect fill="#19232b" x="1573.8" y="74.7" width="12.2" height="24.65" shape-rendering="crispEdges"/><rect fill="#19232b" x="1586" y="74.7" width="36.6" height="24.65" shape-rendering="crispEdges"/><rect fill="#19232b" x="1622.6" y="74.7" width="97.6" height="24.65" shape-rendering="crispEdges"/><rect fill="#1a2127" x="1720.2" y="74.7" width="109.8" height="24.65" shape-rendering="crispEdges"/><rect fill="#fea62b" x="0" y="99.1" width="12.2" height="24.65" shape-rendering="crispEdges"/><rect fill="#fea62b" x="12.2" y="99.1" width="12.2" height="24.65" shape-rendering="crispEdges"/><rect fill="#fea62b" x="24.4" y="99.1" width="12.2" height="24.65" shape-rendering="crispEdges"/><rect fill="#fea62b" x="36.6" y="99.1" width="292.8" height="24.65" shape-rendering="crispEdges"/><rect fill="#fea62b" x="329.4" y="99.1" width="183" height="24.65" shape-rendering="crispEdges"/><rect fill="#fea62b" x="512.4" y="99.1" width="231.8" height="24.65" shape-rendering="crispEdges"/><rect fill="#fea62b" x="744.2" y="99.1" width="122" height="24.65" shape-rendering="crispEdges"/><rect fill="#fea62b" x="866.2" y="99.1" width="231.8" height="24.65" shape-rendering="crispEdges"/><rect fill="#fea62b" x="1098" y="99.1" width="146.4" height="24.65" shape-rendering="crispEdges"/><rect fill="#fea62b" x="1244.4" y="99.1" width="12.2" height="24.65" shape-rendering="crispEdges"/><rect fill="#fea62b" x="1256.6" y="99.1" width="305" height="24.65" shape-rendering="crispEdges"/><rect fill="#fea62b" x="1561.6" y="99.1" width="12.2" height="24.65" shape-rendering="crispEdges"/><rect fill="#fea62b" x="1573.8" y="99.1" width="146.4" height="24.65" shape-rendering="crispEdges"/><rect fill="#1e1e1e" x="1720.2" y="99.1" width="109.8" height="24.65" shape-rendering="crispEdges"/><rect fill="#19232b" x="0" y="123.5" width="12.2" height="24.65" shape-rendering="crispEdges"/><rect fill="#19232b" x="12.2" y="123.5" width="12.2" height="24.65" shape-rendering="crispEdges"/><rect fill="#19232b" x="24.4" y="123.5" width="12.2" height="24.65" shape-rendering="crispEdges"/><rect fill="#19232b" x="36.6" y="123.5" width="292.8" height="24.65" shape-rendering="crispEdges"/><rect fill="#19232b" x="329.4" y="123.5" width="12.2" height="24.65" shape-rendering="crispEdges"/><rect fill="#19232b" x="341.6" y="123.5" width="85.4" height="24.65" shape-rendering="crispEdges"/><rect fill="#19232b" x="427" y="123.5" width="85.4" height="24.65" shape-rendering="crispEdges"/><rect fill="#19232b" x="512.4" y="123.5" width="12.2" height="24.65" shape-rendering="crispEdges"/><rect fill="#19232b" x="524.6" y="123.5" width="207.4" height="24.65" shape-rendering="crispEdges"/><rect fill="#19232b" x="732" y="123.5" width="12.2" height="24.65" shape-rendering="crispEdges"/><rect fill="#19232b" x="744.2" y="123.5" width="122" height="24.65" shape-rendering="crispEdges"/><rect fill="#19232b" x="866.2" y="123.5" width="12.2" height="24.65" shape-rendering="crispEdges"/><rect fill="#19232b" x="878.4" y="123.5" width="207.4" height="24.65" shape-rendering="crispEdges"/><rect fill="#19232b" x="1085.8" y="123.5" width="12.2" height="24.65" shape-rendering="crispEdges"/><rect fill="#19232b" x="1098" y="123.5" width="146.4" height="24.65" shape-rendering="crispEdges"/><rect fill="#19232b" x="1244.4" y="123.5" width="12.2" height="24.65" shape-rendering="crispEdges"/><rect fill="#19232b" x="1256.6" y="123.5" width="85.4" height="24.65" shape-rendering="crispEdges"/><rect fill="#19232b" x="1342" y="123.5" width="231.8" height="24.65" shape-rendering="crispEdges"/><rect fill="#19232b" x="1573.8" y="123.5" width="12.2" height="24.65" shape-rendering="crispEdges"/><rect fill="#19232b" x="1586" y="123.5" width="36.6" height="24.65" shape-rendering="crispEdges"/><rect fill="#19232b" x="1622.6" y="123.5" width="97.6" height="24.65" shape-rendering="crispEdges"/><rect fill="#1a2127" x="1720.2" y="123.5" width="109.8" height="24.65" shape-rendering="crispEdges"/><rect fill="#1e1e1e" x="0" y="147.9" width="12.2" height="24.65" shape-rendering="crispEdges"/><rect fill="#1e1e1e" x="12.2" y="147.9" width="12.2" height="24.65" shape-rendering="crispEdges"/><rect fill="#1e1e1e" x="24.4" y="147.9" width="12.2" height="24.65" shape-rendering="crispEdges"/><rect fill="#1e1e1e" x="36.6" y="147.9" width="292.8" height="24.65" shape-rendering="crispEdges"/><rect fill="#1e1e1e" x="329.4" y="147.9" width="12.2" height="24.65" shape-rendering="crispEdges"/><rect fill="#1e1e1e" x="341.6" y="147.9" width="158.6" height="24.65" shape-rendering="crispEdges"/><rect fill="#1e1e1e" x="500.2" y="147.9" width="12.2" height="24.65" shape-rendering="crispEdges"/><rect fill="#1e1e1e" x="512.4" y="147.9" width="12.2" height="24.65" shape-rendering="crispEdges"/><rect fill="#1e1e1e" x="524.6" y="147.9" width="207.4" height="24.65" shape-rendering="crispEdges"/><rect fill="#1e1e1e" x="732" y="147.9" width="12.2" height="24.65" shape-rendering="crispEdges"/><rect fill="#1e1e1e" x="744.2" y="147.9" width="122" height="24.65" shape-rendering="crispEdges"/><rect fill="#1e1e1e" x="866.2" y="147.9" width="12.2" height="24.65" shape-rendering="crispEdges"/><rect fill="#1e1e1e" x="878.4" y="147.9" width="207.4" height="24.65" shape-rendering="crispEdges"/><rect fill="#1e1e1e" x="1085.8" y="147.9" width="12.2" height="24.65" shape-rendering="crispEdges"/><rect fill="#1e1e1e" x="1098" y="147.9" width="146.4" height="24.65" shape-rendering="crispEdges"/><rect fill="#1e1e1e" x="1244.4" y="147.9" width="12.2" height="24.65" shape-rendering="crispEdges"/><rect fill="#1e1e1e" x="1256.6" y="147.9" width="305" height="24.65" shape-rendering="crispEdges"/><rect fill="#1e1e1e" x="1561.6" y="147.9" width="12.2" height="24.65" shape-rendering="crispEdges"/><rect fill="#1e1e1e" x="1573.8" y="147.9" width="12.2" height="24.65" shape-rendering="crispEdges"/><rect fill="#1e1e1e" x="1586" y="147.9" width="122" height="24.65" shape-rendering="crispEdges"/><rect fill="#1e1e1e" x="1708" y="147.9" width="12.2" height="24.65" shape-rendering="crispEdges"/><rect fill="#1e1e1e" x="1720.2" y="147.9" width="109.8" height="24.65" shape-rendering="crispEdges"/><rect fill="#1e1e1e" x="0" y="172.3" width="1830" height="24.65" shape-rendering="crispEdges"/><rect fill="#1e1e1e" x="0" y="196.7" width="1830" height="24.65" shape-rendering="crispEdges"/><rect fill="#1e1e1e" x="0" y="221.1" width="1830" height="24.65" shape-rendering="crispEdges"/><rect fill="#1e1e1e" x="0" y="245.5" width="1830" height="24.65" shape-rendering="crispEdges"/><rect fill="#24292f" x="0" y="269.9" width="36.6" height="24.65" shape-rendering="crispEdges"/><rect fill="#24292f" x="36.6" y="269.9" width="85.4" height="24.65" shape-rendering="crispEdges"/><rect fill="#24292f" x="122" y="269.9" width="36.6" height="24.65" shape-rendering="crispEdges"/><rect fill="#24292f" x="158.6" y="269.9" width="61" height="24.65" shape-rendering="crispEdges"/><rect fill="#24292f" x="219.6" y="269.9" width="36.6" height="24.65" shape-rendering="crispEdges"/><rect fill="#24292f" x="256.2" y="269.9" width="97.6" height="24.65" shape-rendering="crispEdges"/><rect fill="#24292f" x="353.8" y="269.9" width="36.6" height="24.65" shape-rendering="crispEdges"/><rect fill="#24292f" x="390.4" y="269.9" width="146.4" height="24.65" shape-rendering="crispEdges"/><rect fill="#24292f" x="536.8" y="269.9" width="1293.2" height="24.65" shape-rendering="crispEdges"/>
    <g class="terminal-1311584029-matrix">
    <text class="terminal-1311584029-r2" x="12.2" y="20" textLength="12.2" clip-path="url(#terminal-1311584029-line-0)">⭘</text><text class="terminal-1311584029-r2" x="768.6" y="20" textLength="256.2" clip-path="url(#terminal-1311584029-line-0)">ctr&#160;—&#160;Claude&#160;accounts</text><text class="terminal-1311584029-r1" x="1830" y="20" textLength="12.2" clip-path="url(#terminal-1311584029-line-0)">
</text><text class="terminal-1311584029-r3" x="12.2" y="44.4" textLength="1171.2" clip-path="url(#terminal-1311584029-line-1)">mode:&#160;keychain&#160;&#160;&#160;active:&#160;work&#160;&#160;&#160;Claude&#160;store&#160;holds:&#160;work&#160;&#160;&#160;sessions:&#160;12&#160;follow&#160;·&#160;0&#160;pinned&#160;by&#160;env</text><text class="terminal-1311584029-r1" x="1830" y="44.4" textLength="12.2" clip-path="url(#terminal-1311584029-line-1)">
</text><text class="terminal-1311584029-r4" x="36.6" y="68.8" textLength="292.8" clip-path="url(#terminal-1311584029-line-2)">&#160;ACCOUNT&#160;&#160;&#160;&#160;&#160;&#160;&#160;&#160;&#160;&#160;&#160;&#160;&#160;&#160;&#160;&#160;</text><text class="terminal-1311584029-r4" x="329.4" y="68.8" textLength="183" clip-path="url(#terminal-1311584029-line-2)">&#160;STATUS&#160;&#160;&#160;&#160;&#160;&#160;&#160;&#160;</text><text class="terminal-1311584029-r4" x="512.4" y="68.8" textLength="231.8" clip-path="url(#terminal-1311584029-line-2)">&#160;5H&#160;&#160;&#160;&#160;&#160;&#160;&#160;&#160;&#160;&#160;&#160;&#160;&#160;&#160;&#160;&#160;</text><text class="terminal-1311584029-r4" x="744.2" y="68.8" textLength="122" clip-path="url(#terminal-1311584029-line-2)">&#160;5H&#160;RESET&#160;</text><text class="terminal-1311584029-r4" x="866.2" y="68.8" textLength="231.8" clip-path="url(#terminal-1311584029-line-2)">&#160;7D&#160;&#160;&#160;&#160;&#160;&#160;&#160;&#160;&#160;&#160;&#160;&#160;&#160;&#160;&#160;&#160;</text><text class="terminal-1311584029-r4" x="1098" y="68.8" textLength="146.4" clip-path="url(#terminal-1311584029-line-2)">&#160;7D&#160;RESET&#160;&#160;&#160;</text><text class="terminal-1311584029-r4" x="1244.4" y="68.8" textLength="329.4" clip-path="url(#terminal-1311584029-line-2)">&#160;OVERAGE&#160;&#160;&#160;&#160;&#160;&#160;&#160;&#160;&#160;&#160;&#160;&#160;&#160;&#160;&#160;&#160;&#160;&#160;&#160;</text><text class="terminal-1311584029-r4" x="1573.8" y="68.8" textLength="146.4" clip-path="url(#terminal-1311584029-line-2)">&#160;FABLE&#160;&#160;&#160;&#160;&#160;&#160;</text><text class="terminal-1311584029-r1" x="1830" y="68.8" textLength="12.2" clip-path="url(#terminal-1311584029-line-2)">
</text><text class="terminal-1311584029-r7" x="12.2" y="93.2" textLength="12.2" clip-path="url(#terminal-1311584029-line-3)">●</text><text class="terminal-1311584029-r7" x="48.8" y="93.2" textLength="256.2" clip-path="url(#terminal-1311584029-line-3)">work&#160;&#160;you@example.com</text><text class="terminal-1311584029-r8" x="341.6" y="93.2" textLength="85.4" clip-path="url(#terminal-1311584029-line-3)">allowed</text><text class="terminal-1311584029-r9" x="524.6" y="93.2" textLength="207.4" clip-path="url(#terminal-1311584029-line-3)">██████████░░&#160;&#160;83%</text><text class="terminal-1311584029-r6" x="744.2" y="93.2" textLength="122" clip-path="url(#terminal-1311584029-line-3)">&#160;in&#160;1h12m&#160;</text><text class="terminal-1311584029-r9" x="878.4" y="93.2" textLength="207.4" clip-path="url(#terminal-1311584029-line-3)">█████████░░░&#160;&#160;71%</text><text class="terminal-1311584029-r6" x="1098" y="93.2" textLength="146.4" clip-path="url(#terminal-1311584029-line-3)">&#160;in&#160;58h00m&#160;&#160;</text><text class="terminal-1311584029-r8" x="1256.6" y="93.2" textLength="85.4" clip-path="url(#terminal-1311584029-line-3)">allowed</text><text class="terminal-1311584029-r8" x="1586" y="93.2" textLength="36.6" clip-path="url(#terminal-1311584029-line-3)">yes</text><text class="terminal-1311584029-r1" x="1830" y="93.2" textLength="12.2" clip-path="url(#terminal-1311584029-line-3)">
</text><text class="terminal-1311584029-r10" x="36.6" y="117.6" textLength="292.8" clip-path="url(#terminal-1311584029-line-4)">&#160;spare&#160;&#160;alt@example.com&#160;</text><text class="terminal-1311584029-r10" x="329.4" y="117.6" textLength="183" clip-path="url(#terminal-1311584029-line-4)">&#160;allowed&#160;&#160;&#160;&#160;&#160;&#160;&#160;</text><text class="terminal-1311584029-r10" x="512.4" y="117.6" textLength="231.8" clip-path="url(#terminal-1311584029-line-4)">&#160;██░░░░░░░░░░&#160;&#160;17%&#160;</text><text class="terminal-1311584029-r10" x="744.2" y="117.6" textLength="122" clip-path="url(#terminal-1311584029-line-4)">&#160;in&#160;3h08m&#160;</text><text class="terminal-1311584029-r10" x="866.2" y="117.6" textLength="231.8" clip-path="url(#terminal-1311584029-line-4)">&#160;█░░░░░░░░░░░&#160;&#160;&#160;6%&#160;</text><text class="terminal-1311584029-r10" x="1098" y="117.6" textLength="146.4" clip-path="url(#terminal-1311584029-line-4)">&#160;in&#160;162h00m&#160;</text><text class="terminal-1311584029-r12" x="1256.6" y="117.6" textLength="305" clip-path="url(#terminal-1311584029-line-4)">rejected&#160;(out_of_credits)</text><text class="terminal-1311584029-r10" x="1573.8" y="117.6" textLength="146.4" clip-path="url(#terminal-1311584029-line-4)">&#160;yes&#160;&#160;&#160;&#160;&#160;&#160;&#160;&#160;</text><text class="terminal-1311584029-r1" x="1830" y="117.6" textLength="12.2" clip-path="url(#terminal-1311584029-line-4)">
</text><text class="terminal-1311584029-r6" x="36.6" y="142" textLength="292.8" clip-path="url(#terminal-1311584029-line-5)">&#160;team&#160;&#160;team@example.com&#160;</text><text class="terminal-1311584029-r8" x="341.6" y="142" textLength="85.4" clip-path="url(#terminal-1311584029-line-5)">allowed</text><text class="terminal-1311584029-r8" x="524.6" y="142" textLength="207.4" clip-path="url(#terminal-1311584029-line-5)">░░░░░░░░░░░░&#160;&#160;&#160;4%</text><text class="terminal-1311584029-r6" x="744.2" y="142" textLength="122" clip-path="url(#terminal-1311584029-line-5)">&#160;in&#160;4h58m&#160;</text><text class="terminal-1311584029-r8" x="878.4" y="142" textLength="207.4" clip-path="url(#terminal-1311584029-line-5)">█████░░░░░░░&#160;&#160;42%</text><text class="terminal-1311584029-r6" x="1098" y="142" textLength="146.4" clip-path="url(#terminal-1311584029-line-5)">&#160;in&#160;30h00m&#160;&#160;</text><text class="terminal-1311584029-r8" x="1256.6" y="142" textLength="85.4" clip-path="url(#terminal-1311584029-line-5)">allowed</text><text class="terminal-1311584029-r8" x="1586" y="142" textLength="36.6" clip-path="url(#terminal-1311584029-line-5)">yes</text><text class="terminal-1311584029-r1" x="1830" y="142" textLength="12.2" clip-path="url(#terminal-1311584029-line-5)">
</text><text class="terminal-1311584029-r13" x="36.6" y="166.4" textLength="292.8" clip-path="url(#terminal-1311584029-line-6)">&#160;side&#160;&#160;side@example.com&#160;</text><text class="terminal-1311584029-r14" x="341.6" y="166.4" textLength="158.6" clip-path="url(#terminal-1311584029-line-6)">LIMIT&#160;REACHED</text><text class="terminal-1311584029-r15" x="524.6" y="166.4" textLength="207.4" clip-path="url(#terminal-1311584029-line-6)">████████████&#160;&#160;97%</text><text class="terminal-1311584029-r13" x="744.2" y="166.4" textLength="122" clip-path="url(#terminal-1311584029-line-6)">&#160;in&#160;22m&#160;&#160;&#160;</text><text class="terminal-1311584029-r8" x="878.4" y="166.4" textLength="207.4" clip-path="url(#terminal-1311584029-line-6)">██████░░░░░░&#160;&#160;49%</text><text class="terminal-1311584029-r13" x="1098" y="166.4" textLength="146.4" clip-path="url(#terminal-1311584029-line-6)">&#160;in&#160;44h00m&#160;&#160;</text><text class="terminal-1311584029-r16" x="1256.6" y="166.4" textLength="305" clip-path="url(#terminal-1311584029-line-6)">rejected&#160;(out_of_credits)</text><text class="terminal-1311584029-r14" x="1586" y="166.4" textLength="122" clip-path="url(#terminal-1311584029-line-6)">NO&#160;(limit)</text><text class="terminal-1311584029-r1" x="1830" y="166.4" textLength="12.2" clip-path="url(#terminal-1311584029-line-6)">
</text><text class="terminal-1311584029-r1" x="1830" y="190.8" textLength="12.2" clip-path="url(#terminal-1311584029-line-7)">
</text><text class="terminal-1311584029-r1" x="1830" y="215.2" textLength="12.2" clip-path="url(#terminal-1311584029-line-8)">
</text><text class="terminal-1311584029-r1" x="1830" y="239.6" textLength="12.2" clip-path="url(#terminal-1311584029-line-9)">
</text><text class="terminal-1311584029-r1" x="1830" y="264" textLength="12.2" clip-path="url(#terminal-1311584029-line-10)">
</text><text class="terminal-1311584029-r17" x="0" y="288.4" textLength="36.6" clip-path="url(#terminal-1311584029-line-11)">&#160;⏎&#160;</text><text class="terminal-1311584029-r18" x="36.6" y="288.4" textLength="85.4" clip-path="url(#terminal-1311584029-line-11)">switch&#160;</text><text class="terminal-1311584029-r17" x="122" y="288.4" textLength="36.6" clip-path="url(#terminal-1311584029-line-11)">&#160;q&#160;</text><text class="terminal-1311584029-r18" x="158.6" y="288.4" textLength="61" clip-path="url(#terminal-1311584029-line-11)">quit&#160;</text><text class="terminal-1311584029-r17" x="219.6" y="288.4" textLength="36.6" clip-path="url(#terminal-1311584029-line-11)">&#160;r&#160;</text><text class="terminal-1311584029-r18" x="256.2" y="288.4" textLength="97.6" clip-path="url(#terminal-1311584029-line-11)">refresh&#160;</text><text class="terminal-1311584029-r17" x="353.8" y="288.4" textLength="36.6" clip-path="url(#terminal-1311584029-line-11)">&#160;f&#160;</text><text class="terminal-1311584029-r18" x="390.4" y="288.4" textLength="146.4" clip-path="url(#terminal-1311584029-line-11)">probe&#160;Fable&#160;</text>
    </g>
    </g>
</svg>
